<svg width="243" height="89" viewBox="0 0 243 89" fill="none" xmlns="http://www.w3.org/2000/svg">
<rect width="242.138" height="88.1219" rx="13.3014" fill="#090909"/>
<path d="M55.5016 45.3965C55.5494 41.6734 57.5411 38.1505 60.7007 36.2004C58.7075 33.3426 55.3688 31.5306 51.8953 31.4215C48.1906 31.0311 44.5989 33.6471 42.7111 33.6471C40.7866 33.6471 37.8799 31.4603 34.7499 31.5249C30.67 31.6573 26.8666 33.9859 24.8816 37.5667C20.6148 44.9829 23.7975 55.8822 27.8848 61.8769C29.9297 64.8123 32.3197 68.0913 35.4469 67.975C38.507 67.8476 39.6499 66.016 43.3438 66.016C47.0034 66.016 48.0757 67.975 51.2664 67.9011C54.5501 67.8475 56.6189 64.9526 58.5921 61.9894C60.0614 59.8978 61.192 57.5861 61.9421 55.14C58.0832 53.5015 55.5061 49.6028 55.5016 45.3965Z" fill="white"/>
<path d="M49.475 27.4791C51.2654 25.3214 52.1474 22.548 51.9338 19.748C49.1985 20.0364 46.6718 21.3488 44.8572 23.4237C43.0828 25.451 42.1594 28.1756 42.3339 30.8687C45.0703 30.8969 47.7603 29.6201 49.475 27.4791Z" fill="white"/>
<path d="M164.649 41.5512V46.0628H161.833V49.0215H164.649V59.0746C164.649 62.5074 166.196 63.8805 170.088 63.8805C170.772 63.8805 171.423 63.7987 171.993 63.7007V60.7746C171.505 60.8237 171.195 60.8564 170.658 60.8564C168.916 60.8564 168.15 60.0391 168.15 58.1756V49.0215H171.993V46.0628H168.15V41.5512H164.649Z" fill="white"/>
<path d="M181.907 64.1257C187.085 64.1257 190.26 60.6439 190.26 54.8736C190.26 49.136 187.068 45.6378 181.907 45.6378C176.729 45.6378 173.537 49.136 173.537 54.8736C173.537 60.6439 176.712 64.1257 181.907 64.1257ZM181.907 61.0035C178.862 61.0035 177.152 58.764 177.152 54.8736C177.152 51.0158 178.862 48.76 181.907 48.76C184.935 48.76 186.661 51.0158 186.661 54.8736C186.661 58.7477 184.935 61.0035 181.907 61.0035Z" fill="white"/>
<path d="M192.976 63.7824H196.477V53.2716C196.477 50.7706 198.35 49.0869 201.004 49.0869C201.623 49.0869 202.665 49.2014 202.958 49.2994V45.834C202.583 45.7359 201.916 45.6869 201.395 45.6869C199.083 45.6869 197.112 46.9619 196.608 48.711H196.347V45.9811H192.976V63.7824Z" fill="white"/>
<path d="M211.65 48.6292C214.239 48.6292 215.933 50.4437 216.014 53.2389H207.059C207.254 50.46 209.061 48.6292 211.65 48.6292ZM215.998 58.9765C215.347 60.366 213.897 61.1343 211.781 61.1343C208.98 61.1343 207.173 59.1563 207.059 56.0342V55.838H219.58V54.612C219.58 49.0215 216.6 45.6378 211.667 45.6378C206.668 45.6378 203.493 49.2504 203.493 54.939C203.493 60.6275 206.603 64.1257 211.683 64.1257C215.737 64.1257 218.571 62.1641 219.368 58.9765H215.998Z" fill="white"/>
<path d="M141.692 57.2087C141.962 61.5798 145.59 64.3754 150.991 64.3754C156.763 64.3754 160.374 61.4443 160.374 56.7681C160.374 53.0916 158.315 51.0585 153.32 49.8894L150.636 49.2287C147.463 48.4832 146.181 47.4836 146.181 45.7385C146.181 43.536 148.172 42.0958 151.159 42.0958C153.995 42.0958 155.952 43.5021 156.307 45.7555H159.986C159.767 41.6384 156.155 38.7412 151.21 38.7412C145.894 38.7412 142.35 41.6384 142.35 45.9926C142.35 49.5845 144.358 51.7192 148.763 52.7527L151.902 53.5152C155.125 54.2776 156.543 55.3958 156.543 57.2595C156.543 59.4281 154.315 61.0038 151.278 61.0038C148.02 61.0038 145.759 59.5298 145.438 57.2087H141.692Z" fill="white"/>
<path d="M105.427 45.6869C103.017 45.6869 100.933 46.8965 99.8579 48.9235H99.5974V45.9811H96.2268V69.6998H99.7277V61.0852H100.004C100.933 62.9651 102.935 64.0766 105.459 64.0766C109.937 64.0766 112.787 60.5294 112.787 54.8736C112.787 49.2177 109.937 45.6869 105.427 45.6869ZM104.433 60.9218C101.503 60.9218 99.6625 58.6006 99.6625 54.8899C99.6625 51.1629 101.503 48.8417 104.45 48.8417C107.413 48.8417 109.188 51.1139 109.188 54.8736C109.188 58.6496 107.413 60.9218 104.433 60.9218Z" fill="white"/>
<path d="M125.036 45.6869C122.627 45.6869 120.542 46.8965 119.468 48.9235H119.207V45.9811H115.837V69.6998H119.337V61.0852H119.614C120.542 62.9651 122.545 64.0766 125.069 64.0766C129.547 64.0766 132.396 60.5294 132.396 54.8736C132.396 49.2177 129.547 45.6869 125.036 45.6869ZM124.043 60.9218C121.112 60.9218 119.272 58.6006 119.272 54.8899C119.272 51.1629 121.112 48.8417 124.06 48.8417C127.023 48.8417 128.798 51.1139 128.798 54.8736C128.798 58.6496 127.023 60.9218 124.043 60.9218Z" fill="white"/>
<path d="M89.9458 63.7824H93.9624L85.1696 39.3342H81.1024L72.3096 63.7824H76.1912L78.4358 57.2934H87.718L89.9458 63.7824ZM82.9419 43.7732H83.2288L86.7561 54.1082H79.3978L82.9419 43.7732Z" fill="white"/>
<path d="M72.2124 22.0899V31.7536H75.688C78.5565 31.7536 80.2175 29.9789 80.2175 26.8916C80.2175 23.8512 78.5431 22.0899 75.688 22.0899H72.2124ZM73.7067 23.456H75.5212C77.5158 23.456 78.6966 24.7285 78.6966 26.9117C78.6966 29.1284 77.5358 30.3874 75.5212 30.3874H73.7067V23.456Z" fill="white"/>
<path d="M85.3048 31.8942C87.4261 31.8942 88.727 30.4678 88.727 28.1038C88.727 25.7531 87.4195 24.32 85.3048 24.32C83.1834 24.32 81.8759 25.7531 81.8759 28.1038C81.8759 30.4678 83.1768 31.8942 85.3048 31.8942ZM85.3048 30.6151C84.0573 30.6151 83.3569 29.6976 83.3569 28.1038C83.3569 26.5233 84.0573 25.5991 85.3048 25.5991C86.5456 25.5991 87.2527 26.5233 87.2527 28.1038C87.2527 29.6909 86.5456 30.6151 85.3048 30.6151Z" fill="white"/>
<path d="M99.8047 24.4606H98.3705L97.0763 30.0258H96.9629L95.4686 24.4606H94.0944L92.6001 30.0258H92.4934L91.1926 24.4606H89.7383L91.7396 31.7536H93.2139L94.7081 26.3826H94.8216L96.3225 31.7536H97.8101L99.8047 24.4606Z" fill="white"/>
<path d="M101.456 31.7536H102.891V27.4876C102.891 26.3491 103.564 25.6393 104.625 25.6393C105.686 25.6393 106.193 26.2219 106.193 27.3939V31.7536H107.627V27.0322C107.627 25.2977 106.733 24.32 105.112 24.32C104.018 24.32 103.298 24.8088 102.944 25.6192H102.837V24.4606H101.456V31.7536Z" fill="white"/>
<path d="M109.886 31.7536H111.32V21.6144H109.886V31.7536Z" fill="white"/>
<path d="M116.714 31.8942C118.836 31.8942 120.136 30.4678 120.136 28.1038C120.136 25.7531 118.829 24.32 116.714 24.32C114.593 24.32 113.285 25.7531 113.285 28.1038C113.285 30.4678 114.586 31.8942 116.714 31.8942ZM116.714 30.6151C115.467 30.6151 114.766 29.6976 114.766 28.1038C114.766 26.5233 115.467 25.5991 116.714 25.5991C117.955 25.5991 118.662 26.5233 118.662 28.1038C118.662 29.6909 117.955 30.6151 116.714 30.6151Z" fill="white"/>
<path d="M124.41 30.662C123.629 30.662 123.062 30.2803 123.062 29.624C123.062 28.9811 123.516 28.6395 124.517 28.5725L126.291 28.4587V29.0681C126.291 29.9722 125.491 30.662 124.41 30.662ZM124.043 31.8742C124.997 31.8742 125.791 31.4589 126.224 30.729H126.338V31.7536H127.719V26.7711C127.719 25.2307 126.691 24.32 124.87 24.32C123.222 24.32 122.048 25.1236 121.902 26.3759H123.289C123.449 25.8603 124.003 25.5656 124.803 25.5656C125.784 25.5656 126.291 26.0009 126.291 26.7711V27.4006L124.323 27.5144C122.595 27.6216 121.621 28.3783 121.621 29.6909C121.621 31.0236 122.642 31.8742 124.043 31.8742Z" fill="white"/>
<path d="M132.586 31.8742C133.586 31.8742 134.434 31.3987 134.867 30.6017H134.981V31.7536H136.355V21.6144H134.921V25.6192H134.814C134.42 24.8155 133.58 24.3401 132.586 24.3401C130.751 24.3401 129.57 25.8 129.57 28.1038C129.57 30.4142 130.738 31.8742 132.586 31.8742ZM132.993 25.6326C134.193 25.6326 134.947 26.5902 134.947 28.1104C134.947 29.6374 134.2 30.5816 132.993 30.5816C131.779 30.5816 131.051 29.6508 131.051 28.1038C131.051 26.5701 131.785 25.6326 132.993 25.6326Z" fill="white"/>
<path d="M145.655 31.8942C147.777 31.8942 149.078 30.4678 149.078 28.1038C149.078 25.7531 147.77 24.32 145.655 24.32C143.534 24.32 142.227 25.7531 142.227 28.1038C142.227 30.4678 143.527 31.8942 145.655 31.8942ZM145.655 30.6151C144.408 30.6151 143.708 29.6976 143.708 28.1038C143.708 26.5233 144.408 25.5991 145.655 25.5991C146.896 25.5991 147.603 26.5233 147.603 28.1038C147.603 29.6909 146.896 30.6151 145.655 30.6151Z" fill="white"/>
<path d="M150.976 31.7536H152.41V27.4876C152.41 26.3491 153.084 25.6393 154.145 25.6393C155.206 25.6393 155.713 26.2219 155.713 27.3939V31.7536H157.147V27.0322C157.147 25.2977 156.253 24.32 154.632 24.32C153.538 24.32 152.817 24.8088 152.464 25.6192H152.357V24.4606H150.976V31.7536Z" fill="white"/>
<path d="M163.752 22.6457V24.4941H162.598V25.7062H163.752V29.8249C163.752 31.2312 164.386 31.7938 165.98 31.7938C166.261 31.7938 166.527 31.7603 166.761 31.7201V30.5214C166.561 30.5415 166.434 30.5548 166.214 30.5548C165.5 30.5548 165.187 30.22 165.187 29.4565V25.7062H166.761V24.4941H165.187V22.6457H163.752Z" fill="white"/>
<path d="M168.686 31.7536H170.12V27.4943C170.12 26.3893 170.774 25.646 171.948 25.646C172.962 25.646 173.503 26.2353 173.503 27.4006V31.7536H174.937V27.0456C174.937 25.3111 173.983 24.3267 172.435 24.3267C171.341 24.3267 170.574 24.8155 170.221 25.6326H170.107V21.6144H168.686V31.7536Z" fill="white"/>
<path d="M180.111 25.5455C181.172 25.5455 181.865 26.2889 181.899 27.4341H178.23C178.31 26.2956 179.05 25.5455 180.111 25.5455ZM181.892 29.7847C181.625 30.3539 181.031 30.6687 180.164 30.6687C179.017 30.6687 178.276 29.8584 178.23 28.5792V28.4989H183.36V27.9966C183.36 25.7062 182.139 24.32 180.118 24.32C178.07 24.32 176.769 25.8 176.769 28.1305C176.769 30.4611 178.043 31.8942 180.124 31.8942C181.785 31.8942 182.946 31.0906 183.273 29.7847H181.892Z" fill="white"/>
</svg>
