<svg width="243" height="89" viewBox="0 0 243 89" fill="none" xmlns="http://www.w3.org/2000/svg">
<rect width="242.138" height="88.1219" rx="13.3014" fill="#090909"/>
<path fill-rule="evenodd" clip-rule="evenodd" d="M51.7461 24H34.2539C26.0139 24 23 27.0139 23 35.2539V52.7464C23 60.9862 26.0139 64 34.2539 64H51.7406C59.9806 64 63 60.9862 63 52.7464V35.2539C63 27.0139 59.9861 24 51.7461 24Z" fill="#C91C2E"/>
<path d="M40.4508 47.1982H42.055L41.2504 45.327L40.4508 47.1982ZM40.0559 48.1414L39.5801 49.2302H38.4967L40.8007 44.0034H41.7367L44.0314 49.2302H42.919L42.4491 48.1414H40.0559ZM57.4887 49.2266H58.5359V44.0034H57.4887V49.2266ZM53.3216 46.9822H55.2512V46.0304H53.3216V44.9597H56.1228V44.0067H52.2748V49.2297H56.2239V48.2771H53.3216V46.9822ZM49.1611 47.5995L47.9738 44.0033H47.1081L45.9207 47.5995L44.7653 44.0057H43.6361L45.4588 49.2327H46.3371L47.5262 45.7993L48.7148 49.2327H49.6011L51.4192 44.0057H50.319L49.1611 47.5995ZM36.8984 46.9967C36.8984 47.847 36.4761 48.3013 35.7093 48.3013C34.9384 48.3013 34.514 47.8342 34.514 46.9605V44.0064H33.4529V46.9967C33.4529 48.4679 34.2702 49.3113 35.695 49.3113C37.1338 49.3113 37.959 48.4518 37.959 46.9534V44.0033H36.8984V46.9967ZM30.9211 44.0034H31.9818V49.233H30.9211V47.1094H28.5249V49.233H27.4639V44.0034H28.5249V46.1131H30.9211V44.0034Z" fill="white"/>
<path d="M42.9999 37.3448C39.3287 37.3448 36.3418 34.3579 36.3418 30.6867H37.2824C37.2824 33.8393 39.8471 36.4043 42.9999 36.4043C46.1527 36.4043 48.7174 33.8393 48.7174 30.6867H49.658C49.658 34.3579 46.6711 37.3448 42.9999 37.3448Z" fill="white"/>
<path d="M80.1709 29.6738V31H73.9092V21.1357H80.1709V22.4551H75.4404V25.3398H79.918V26.6113H75.4404V29.6738H80.1709ZM84.2588 28.3545H84.2246L82.6318 31H81.0322L83.4043 27.4111L81.0664 23.8086H82.7207L84.293 26.4131H84.3203L85.8721 23.8086H87.499L85.1406 27.3633L87.4717 31H85.8447L84.2588 28.3545ZM92.1748 23.6924C94 23.6924 95.2031 25.1279 95.2031 27.4043C95.2031 29.6807 94.0068 31.123 92.2021 31.123C91.1699 31.123 90.3496 30.6172 89.9395 29.8174H89.9053V33.3789H88.4287V23.8086H89.8574V25.0459H89.8848C90.3086 24.2188 91.1357 23.6924 92.1748 23.6924ZM91.7852 29.8721C92.9541 29.8721 93.6855 28.915 93.6855 27.4043C93.6855 25.9004 92.9541 24.9365 91.7852 24.9365C90.6572 24.9365 89.8984 25.9209 89.8984 27.4043C89.8984 28.9014 90.6504 29.8721 91.7852 29.8721ZM96.3994 31V21.1357H97.876V31H96.3994ZM102.483 31.1367C100.426 31.1367 99.0723 29.7217 99.0723 27.4043C99.0723 25.0938 100.433 23.6787 102.483 23.6787C104.534 23.6787 105.895 25.0938 105.895 27.4043C105.895 29.7217 104.541 31.1367 102.483 31.1367ZM102.483 29.9199C103.646 29.9199 104.391 29.0039 104.391 27.4043C104.391 25.8115 103.639 24.8955 102.483 24.8955C101.328 24.8955 100.576 25.8115 100.576 27.4043C100.576 29.0039 101.328 29.9199 102.483 29.9199ZM107.036 31V23.8086H108.444V25.0322H108.479C108.718 24.1914 109.36 23.6924 110.208 23.6924C110.42 23.6924 110.604 23.7266 110.714 23.7471V25.1211C110.598 25.0732 110.338 25.0391 110.051 25.0391C109.101 25.0391 108.513 25.6748 108.513 26.6934V31H107.036ZM114.323 24.8682C113.291 24.8682 112.566 25.6543 112.491 26.7412H116.087C116.053 25.6406 115.355 24.8682 114.323 24.8682ZM116.08 28.8877H117.481C117.276 30.2002 116.032 31.1367 114.385 31.1367C112.272 31.1367 110.994 29.708 110.994 27.4385C110.994 25.1826 112.293 23.6787 114.323 23.6787C116.319 23.6787 117.563 25.0869 117.563 27.2676V27.7734H112.484V27.8623C112.484 29.1133 113.236 29.9404 114.419 29.9404C115.26 29.9404 115.882 29.5166 116.08 28.8877ZM123.265 31H121.733V21.1357H123.265V31ZM125.336 22.1064H126.819V23.8086H128.187V24.9775H126.819V28.9424C126.819 29.5645 127.093 29.8447 127.694 29.8447C127.845 29.8447 128.084 29.8311 128.18 29.8105V30.9795C128.016 31.0205 127.688 31.0479 127.359 31.0479C125.903 31.0479 125.336 30.4941 125.336 29.1064V24.9775H124.29V23.8086H125.336V22.1064ZM136.69 20.9717C139.527 20.9717 141.312 22.9336 141.312 26.0713C141.312 29.209 139.527 31.1641 136.69 31.1641C133.847 31.1641 132.069 29.209 132.069 26.0713C132.069 22.9336 133.847 20.9717 136.69 20.9717ZM136.69 22.3184C134.817 22.3184 133.635 23.7676 133.635 26.0713C133.635 28.3682 134.817 29.8174 136.69 29.8174C138.563 29.8174 139.739 28.3682 139.739 26.0713C139.739 23.7676 138.563 22.3184 136.69 22.3184ZM142.597 31V23.8086H144.005V25.0117H144.039C144.429 24.1914 145.194 23.6855 146.302 23.6855C147.888 23.6855 148.797 24.6973 148.797 26.3447V31H147.313V26.6318C147.313 25.5518 146.808 24.957 145.782 24.957C144.743 24.957 144.073 25.6953 144.073 26.8096V31H142.597Z" fill="white"/>
<path d="M88.7178 63L86.7842 57.2871H78.7275L76.7939 63H73.3809L81.0127 41.8623H84.5576L92.1895 63H88.7178ZM82.7119 45.3779L79.5625 54.6504H85.9492L82.7998 45.3779H82.7119ZM102.165 47.3408C106.076 47.3408 108.654 50.417 108.654 55.2949C108.654 60.1729 106.091 63.2637 102.224 63.2637C100.012 63.2637 98.2539 62.1797 97.375 60.4658H97.3018V68.0977H94.1377V47.5898H97.1992V50.2412H97.2578C98.166 48.4688 99.9385 47.3408 102.165 47.3408ZM101.33 60.583C103.835 60.583 105.402 58.5322 105.402 55.2949C105.402 52.0723 103.835 50.0068 101.33 50.0068C98.9131 50.0068 97.2871 52.1162 97.2871 55.2949C97.2871 58.5029 98.8984 60.583 101.33 60.583ZM119.128 47.3408C123.039 47.3408 125.617 50.417 125.617 55.2949C125.617 60.1729 123.054 63.2637 119.187 63.2637C116.975 63.2637 115.217 62.1797 114.338 60.4658H114.265V68.0977H111.101V47.5898H114.162V50.2412H114.221C115.129 48.4688 116.901 47.3408 119.128 47.3408ZM118.293 60.583C120.798 60.583 122.365 58.5322 122.365 55.2949C122.365 52.0723 120.798 50.0068 118.293 50.0068C115.876 50.0068 114.25 52.1162 114.25 55.2949C114.25 58.5029 115.861 60.583 118.293 60.583ZM152.746 54.2109C152.746 59.9385 149.362 63.3516 143.635 63.3516C137.585 63.3516 133.776 59.1182 133.776 52.3359C133.776 45.6709 137.57 41.5107 143.591 41.5107C148.293 41.5107 151.853 44.2939 152.585 48.5127H149.216C148.425 45.8906 146.359 44.3818 143.605 44.3818C139.562 44.3818 137.131 47.3408 137.131 52.3066C137.131 57.3604 139.636 60.4805 143.664 60.4805C147.092 60.4805 149.465 58.2832 149.509 55.0752V54.709H144.045V52.0576H152.746V54.2109ZM160.905 60.7588C163.117 60.7588 164.846 59.2354 164.846 57.2285V56.0127L161.052 56.2471C159.162 56.3789 158.093 57.2139 158.093 58.5322C158.093 59.8799 159.206 60.7588 160.905 60.7588ZM160.026 63.2637C157.009 63.2637 154.899 61.3887 154.899 58.6201C154.899 55.9248 156.965 54.2695 160.627 54.0645L164.846 53.8154V52.6289C164.846 50.915 163.688 49.8896 161.755 49.8896C159.924 49.8896 158.781 50.7686 158.503 52.1455H155.515C155.69 49.3623 158.063 47.3115 161.872 47.3115C165.607 47.3115 167.995 49.2891 167.995 52.3799V63H164.963V60.4658H164.89C163.996 62.1797 162.048 63.2637 160.026 63.2637ZM171.188 63V41.8623H174.353V63H171.188ZM177.722 63V41.8623H180.886V63H177.722ZM190.583 49.8604C188.371 49.8604 186.818 51.5449 186.657 53.874H194.362C194.289 51.5156 192.795 49.8604 190.583 49.8604ZM194.348 58.4736H197.351C196.911 61.2861 194.245 63.293 190.715 63.293C186.188 63.293 183.449 60.2314 183.449 55.3682C183.449 50.5342 186.232 47.3115 190.583 47.3115C194.86 47.3115 197.526 50.3291 197.526 55.002V56.0859H186.643V56.2764C186.643 58.957 188.254 60.7295 190.788 60.7295C192.59 60.7295 193.923 59.8213 194.348 58.4736ZM199.987 63V47.5898H203.005V50.2119H203.078C203.591 48.4102 204.968 47.3408 206.784 47.3408C207.238 47.3408 207.634 47.4141 207.868 47.458V50.4023C207.619 50.2998 207.062 50.2266 206.447 50.2266C204.411 50.2266 203.151 51.5889 203.151 53.7715V63H199.987ZM211.354 68.7422C211.105 68.7422 210.3 68.7129 210.065 68.6689V66.1055C210.3 66.1641 210.827 66.1641 211.091 66.1641C212.57 66.1641 213.347 65.5488 213.83 63.9668C213.83 63.9375 214.108 63.0293 214.108 63.0146L208.542 47.5898H211.97L215.881 60.1289H215.925L219.836 47.5898H223.176L217.39 63.8057C216.071 67.541 214.562 68.7422 211.354 68.7422Z" fill="white"/>
</svg>
