<svg width="80" height="75" viewBox="0 0 80 75" fill="none" xmlns="http://www.w3.org/2000/svg">
<path d="M40.0002 0.416626C18.3802 0.416626 0.833496 17.03 0.833496 37.5C0.833496 57.97 18.3802 74.5833 40.0002 74.5833H71.3335C75.6418 74.5833 79.1668 71.2458 79.1668 67.1666V37.5C79.1668 17.03 61.6202 0.416626 40.0002 0.416626ZM40.0002 67.1666C28.681 67.1666 18.7327 61.4558 13.2493 52.9266L24.8035 41.987L37.6893 52.3333L55.6668 35.3491V41.2083H63.5002V22.6666H43.9168V30.0833H50.1052L37.2585 42.2466L24.3335 31.9375L9.881 45.6583C9.09766 43.0625 8.66683 40.3183 8.66683 37.5C8.66683 21.1462 22.7277 7.83329 40.0002 7.83329C57.2727 7.83329 71.3335 21.1462 71.3335 37.5C71.3335 53.8537 57.2727 67.1666 40.0002 67.1666ZM69.3752 69.0208C67.221 69.0208 65.4585 67.352 65.4585 65.3125C65.4585 63.2729 67.221 61.6041 69.3752 61.6041C71.5293 61.6041 73.2918 63.2729 73.2918 65.3125C73.2918 67.352 71.5293 69.0208 69.3752 69.0208Z" fill="#523364"/>
</svg>
