<svg width="75" height="75" viewBox="0 0 75 75" fill="none" xmlns="http://www.w3.org/2000/svg">
<path d="M37.6012 0.416626C17.0847 0.416626 0.433594 17.03 0.433594 37.5C0.433594 57.97 17.0847 74.5833 37.6012 74.5833C58.1177 74.5833 74.7688 57.97 74.7688 37.5C74.7688 17.03 58.1177 0.416626 37.6012 0.416626ZM37.6012 67.1666C21.2103 67.1666 7.86712 53.8537 7.86712 37.5C7.86712 21.1462 21.2103 7.83329 37.6012 7.83329C53.9921 7.83329 67.3353 21.1462 67.3353 37.5C67.3353 53.8537 53.9921 67.1666 37.6012 67.1666ZM54.6611 21.1091L30.1677 45.547L20.5413 35.9795L15.3006 41.2083L30.1677 56.0416L59.9018 26.375L54.6611 21.1091Z" fill="#523364"/>
</svg>
