<svg width="66" height="66" viewBox="0 0 66 66" fill="none" xmlns="http://www.w3.org/2000/svg">
<path d="M32.6667 3H62.3333C62.3333 10.8681 59.2077 18.4139 53.6442 23.9775C48.0806 29.5411 40.5348 32.6667 32.6667 32.6667M32.6667 3C24.7986 3 17.2527 6.12559 11.6892 11.6892C6.12559 17.2527 3 24.7986 3 32.6667M32.6667 3V62.3333M3 32.6667C3 40.5348 6.12559 48.0806 11.6892 53.6442C17.2527 59.2077 24.7986 62.3333 32.6667 62.3333M3 32.6667H32.6667M32.6667 62.3333H62.3333C62.3333 54.4652 59.2077 46.9194 53.6442 41.3558C48.0806 35.7923 40.5348 32.6667 32.6667 32.6667" stroke="#523364" stroke-width="6" stroke-linecap="round" stroke-linejoin="round"/>
</svg>
