<svg width="68" height="75" viewBox="0 0 68 75" fill="none" xmlns="http://www.w3.org/2000/svg">
<path d="M65.1937 15.25C55.493 17.8458 44.1197 18.9583 33.6012 18.9583C23.0828 18.9583 11.7095 17.8458 2.00877 15.25L0.150391 22.6666C7.06357 24.5208 15.0174 25.7445 22.451 26.375V74.5833H29.8845V52.3333H37.318V74.5833H44.7515V26.375C52.1851 25.7445 60.1389 24.5208 67.0521 22.6666L65.1937 15.25ZM33.6012 15.25C37.6897 15.25 41.0348 11.9125 41.0348 7.83329C41.0348 3.75413 37.6897 0.416626 33.6012 0.416626C29.5128 0.416626 26.1677 3.75413 26.1677 7.83329C26.1677 11.9125 29.5128 15.25 33.6012 15.25Z" fill="#523364"/>
</svg>
