<svg width="270" height="109" viewBox="0 0 270 109" fill="none" xmlns="http://www.w3.org/2000/svg">
<rect x="9.20947" width="262" height="78" rx="10" transform="rotate(6.78059 9.20947 0)" fill="#523364"/>
<path d="M24.9451 29.0614L25.9755 20.3951L31.2057 21.017L31.095 21.9479L26.9143 21.4508L26.5661 24.3791L30.4761 24.844L30.3654 25.7749L26.4554 25.31L26.1052 28.2552L30.3537 28.7603L30.243 29.6913L24.9451 29.0614ZM33.395 26.1008L32.9301 30.0108L31.9314 29.892L32.7042 23.3923L33.669 23.5071L33.5483 24.5226L33.6329 24.5327C33.8245 24.2207 34.0873 23.9831 34.4215 23.8197C34.7559 23.6535 35.1686 23.5995 35.6595 23.6579C36.0995 23.7102 36.4739 23.8463 36.7825 24.0661C37.0914 24.283 37.3159 24.5844 37.456 24.9701C37.5964 25.353 37.6338 25.8209 37.568 26.3738L37.077 30.5038L36.0783 30.3851L36.5613 26.3228C36.6221 25.8122 36.5368 25.3986 36.3055 25.0822C36.0745 24.7629 35.7277 24.5758 35.265 24.5208C34.9463 24.4829 34.6531 24.5181 34.3856 24.6265C34.1209 24.7352 33.9009 24.9136 33.7255 25.1617C33.5501 25.4097 33.4399 25.7228 33.395 26.1008ZM42.5013 24.5572L42.4007 25.4035L39.0324 25.003L39.133 24.1567L42.5013 24.5572ZM40.2999 22.7162L41.2985 22.835L40.562 29.03C40.5284 29.3121 40.5442 29.5285 40.6092 29.6793C40.6774 29.8276 40.7735 29.9334 40.8976 29.9968C41.0248 30.0577 41.1618 30.0969 41.3085 30.1143C41.4185 30.1274 41.5094 30.1325 41.5813 30.1296C41.6535 30.1239 41.7113 30.1193 41.7546 30.1159L41.851 31.0371C41.7803 31.0545 41.6828 31.0686 41.5585 31.0796C41.4338 31.0934 41.2784 31.0892 41.0922 31.0671C40.8101 31.0335 40.5408 30.94 40.2844 30.7865C40.0309 30.6333 39.83 30.422 39.6818 30.1527C39.5364 29.8836 39.4862 29.5601 39.5311 29.1821L40.2999 22.7162ZM45.8699 31.6866C45.2437 31.6122 44.7199 31.4097 44.2986 31.0792C43.8804 30.7463 43.5783 30.3156 43.3922 29.787C43.2093 29.2561 43.1574 28.6577 43.2366 27.9919C43.3158 27.3261 43.5068 26.7538 43.8098 26.2749C44.116 25.7934 44.5046 25.4362 44.9757 25.2033C45.45 24.9679 45.9806 24.8851 46.5673 24.9548C46.9059 24.9951 47.2335 25.0913 47.5501 25.2433C47.8667 25.3954 48.1454 25.6145 48.386 25.9006C48.627 26.1839 48.8032 26.5424 48.9147 26.9762C49.0262 27.41 49.0459 27.9302 48.9738 28.5367L48.9235 28.9599L43.9133 28.3642L44.0159 27.5009L48.0105 27.9759C48.0541 27.6092 48.0197 27.2732 47.9072 26.968C47.7975 26.6632 47.6186 26.4116 47.3704 26.2133C47.125 26.0153 46.8218 25.8949 46.4607 25.8519C46.0629 25.8046 45.707 25.8624 45.393 26.0254C45.0821 26.1858 44.8304 26.4134 44.638 26.7081C44.4457 27.0027 44.3282 27.3292 44.2856 27.6875L44.2171 28.263C44.1588 28.7538 44.1939 29.18 44.3226 29.5415C44.4544 29.9005 44.6621 30.1869 44.9457 30.4009C45.2295 30.612 45.5732 30.7416 45.9766 30.7895C46.239 30.8207 46.4803 30.8122 46.7006 30.764C46.924 30.7134 47.1222 30.6225 47.2952 30.4914C47.4684 30.3575 47.6108 30.1828 47.7223 29.9672L48.6549 30.3527C48.5144 30.6679 48.3095 30.9353 48.0402 31.1551C47.7712 31.372 47.4522 31.5286 47.0832 31.6249C46.7144 31.7184 46.31 31.7389 45.8699 31.6866ZM50.0964 32.0518L50.8692 25.5522L51.834 25.6669L51.7173 26.6486L51.785 26.6566C51.9417 26.3491 52.1872 26.1137 52.5213 25.9503C52.8554 25.7869 53.2171 25.7283 53.6064 25.7746C53.6798 25.7833 53.7713 25.7956 53.881 25.8115C53.9907 25.8274 54.0734 25.8416 54.1291 25.8539L54.0084 26.8695C53.9755 26.857 53.8995 26.8351 53.7802 26.8037C53.664 26.7699 53.5397 26.7451 53.4071 26.7293C53.0911 26.6918 52.8012 26.7245 52.5371 26.8276C52.2763 26.9282 52.0602 27.0856 51.8888 27.2998C51.7206 27.5115 51.619 27.7641 51.5841 28.0575L51.0951 32.1706L50.0964 32.0518ZM59.776 33.3572C59.3641 33.3082 58.9996 33.1862 58.6823 32.9911C58.3654 32.7932 58.1258 32.5345 57.9635 32.2148C57.8016 31.8923 57.7458 31.5194 57.7961 31.0963C57.8404 30.7239 57.9496 30.4308 58.1238 30.2169C58.2984 30.0002 58.5162 29.8401 58.7774 29.7367C59.0386 29.6333 59.3212 29.5668 59.6251 29.5371C59.9322 29.505 60.239 29.4871 60.5456 29.4835C60.9465 29.4797 61.2713 29.4796 61.5197 29.4834C61.7713 29.4847 61.9574 29.4597 62.078 29.4082C62.2013 29.3571 62.2726 29.2511 62.2917 29.0903L62.2957 29.0564C62.3454 28.6389 62.2697 28.3009 62.0687 28.0424C61.8705 27.7843 61.5415 27.6279 61.0817 27.5732C60.6049 27.5165 60.2187 27.5764 59.9231 27.753C59.6274 27.9295 59.4105 28.1298 59.2723 28.3537L58.3647 27.9024C58.5809 27.5276 58.8432 27.2469 59.1514 27.0604C59.4629 26.8715 59.7916 26.7532 60.1377 26.7057C60.487 26.6556 60.8252 26.6501 61.1525 26.689C61.3612 26.7138 61.598 26.7677 61.8628 26.8507C62.1307 26.9312 62.3826 27.0627 62.6184 27.2452C62.857 27.4281 63.0426 27.6833 63.1753 28.0109C63.308 28.3386 63.3437 28.7605 63.2823 29.2767L62.7731 33.5591L61.7745 33.4403L61.8791 32.5602L61.8284 32.5541C61.7439 32.6871 61.6131 32.8246 61.436 32.9667C61.2589 33.1087 61.0325 33.2205 60.7567 33.3022C60.4809 33.3838 60.154 33.4022 59.776 33.3572ZM60.035 32.4782C60.4299 32.5252 60.772 32.4872 61.0613 32.3642C61.3534 32.2416 61.5832 32.0658 61.7506 31.8368C61.9208 31.6081 62.022 31.3584 62.0542 31.0876L62.1629 30.1736C62.1145 30.2193 62.0159 30.2548 61.867 30.28C61.7213 30.3027 61.5534 30.3185 61.3636 30.3274C61.1768 30.3338 60.9947 30.3379 60.8171 30.3397C60.6427 30.339 60.501 30.3393 60.3921 30.3407C60.1286 30.3437 59.8794 30.3698 59.6447 30.4192C59.4131 30.466 59.2193 30.556 59.0633 30.6891C58.9105 30.8197 58.8189 31.0119 58.7887 31.2658C58.7475 31.6128 58.8447 31.8904 59.0802 32.0986C59.319 32.3044 59.6372 32.4309 60.035 32.4782ZM64.5959 33.7758L65.3687 27.2761L66.3335 27.3908L66.2127 28.4064L66.2974 28.4165C66.474 28.0856 66.7247 27.8422 67.0493 27.6862C67.3743 27.5275 67.7484 27.4732 68.1716 27.5236C68.6004 27.5745 68.9457 27.7143 69.2074 27.9428C69.4724 28.1689 69.6646 28.4649 69.7842 28.8311L69.8519 28.8391C70.0582 28.5232 70.3396 28.2863 70.6959 28.1284C71.0526 27.9677 71.4637 27.915 71.9292 27.9703C72.5103 28.0394 72.964 28.2779 73.2903 28.6858C73.6169 29.0908 73.7348 29.6756 73.6439 30.4401L73.1267 34.7901L72.128 34.6714L72.6453 30.3213C72.7023 29.8417 72.6119 29.4834 72.374 29.2463C72.1361 29.0091 71.8395 28.8694 71.484 28.8272C71.027 28.7728 70.6565 28.869 70.3726 29.1156C70.089 29.3594 69.9222 29.6914 69.8722 30.1118L69.3691 34.3433L68.3535 34.2226L68.8828 29.771C68.9267 29.4014 68.8422 29.0895 68.6293 28.8354C68.4166 28.5783 68.1213 28.4274 67.7433 28.3824C67.4838 28.3516 67.2329 28.3918 66.9908 28.5032C66.7515 28.615 66.5482 28.7853 66.3808 29.0143C66.2165 29.2408 66.1154 29.5135 66.0775 29.8322L65.5945 33.8945L64.5959 33.7758ZM77.577 35.4566C76.9902 35.3868 76.492 35.1859 76.0823 34.854C75.6754 34.5224 75.3777 34.0908 75.1892 33.5591C75.0034 33.0278 74.9505 32.4264 75.0303 31.755C75.1108 31.0779 75.3038 30.5015 75.6093 30.0257C75.9176 29.5503 76.3084 29.1991 76.7816 28.9721C77.2577 28.7455 77.7892 28.6671 78.376 28.7369C78.9627 28.8066 79.4596 29.0073 79.8664 29.3389C80.2761 29.6709 80.5737 30.1039 80.7591 30.6381C80.9473 31.1725 81.0011 31.7783 80.9206 32.4554C80.8408 33.1268 80.6469 33.6988 80.339 34.1714C80.0338 34.6444 79.6432 34.9942 79.1671 35.2208C78.6938 35.4477 78.1638 35.5263 77.577 35.4566ZM77.6837 34.5595C78.1294 34.6125 78.5097 34.5418 78.8246 34.3475C79.1395 34.1532 79.3882 33.8781 79.5708 33.5222C79.7533 33.1662 79.8703 32.7711 79.922 32.3366C79.9736 31.9022 79.9527 31.4891 79.859 31.0975C79.7654 30.7059 79.5885 30.3773 79.3283 30.1117C79.068 29.8462 78.715 29.6869 78.2693 29.6339C77.8236 29.5809 77.4431 29.653 77.1278 29.8501C76.8126 30.0472 76.5635 30.3252 76.3807 30.6839C76.1979 31.0427 76.0806 31.4393 76.029 31.8737C75.9773 32.3082 75.9985 32.7198 76.0924 33.1086C76.1864 33.4974 76.3636 33.8232 76.6242 34.0859C76.8848 34.3486 77.2379 34.5065 77.6837 34.5595ZM86.4748 33.6822L86.9316 29.8399L87.9303 29.9587L87.1575 36.4584L86.1588 36.3396L86.2896 35.2394L86.2219 35.2314C86.0304 35.5433 85.76 35.7958 85.4109 35.9889C85.0621 36.1792 84.6423 36.2451 84.1515 36.1868C83.7452 36.1385 83.3947 36.0067 83.0999 35.7914C82.8054 35.5733 82.5894 35.2729 82.4517 34.8904C82.3145 34.505 82.2787 34.0358 82.3444 33.4829L82.8355 29.3529L83.8341 29.4717L83.3511 33.5339C83.2948 34.0079 83.3824 34.4017 83.6141 34.7153C83.8485 35.0293 84.1731 35.2109 84.5878 35.2602C84.836 35.2897 85.0961 35.2563 85.3679 35.1599C85.6425 35.0638 85.8829 34.8949 86.089 34.6534C86.2979 34.4122 86.4265 34.0884 86.4748 33.6822ZM90.4501 32.8846L89.9852 36.7946L88.9866 36.6758L89.7594 30.1762L90.7242 30.2909L90.6034 31.3064L90.6881 31.3165C90.8796 31.0046 91.1425 30.7669 91.4766 30.6035C91.8111 30.4373 92.2237 30.3833 92.7146 30.4417C93.1547 30.494 93.529 30.6301 93.8376 30.8499C94.1465 31.0669 94.3711 31.3682 94.5112 31.7539C94.6516 32.1368 94.6889 32.6047 94.6232 33.1576L94.1321 37.2876L93.1335 37.1689L93.6165 33.1066C93.6772 32.596 93.5919 32.1825 93.3606 31.866C93.1297 31.5467 92.7828 31.3596 92.3202 31.3046C92.0014 31.2667 91.7083 31.3019 91.4408 31.4103C91.1761 31.519 90.956 31.6974 90.7806 31.9455C90.6052 32.1935 90.4951 32.5066 90.4501 32.8846ZM99.5565 31.341L99.4559 32.1873L96.0875 31.7869L96.1882 30.9405L99.5565 31.341ZM97.355 29.5001L98.3537 29.6188L97.6171 35.8138C97.5836 36.0959 97.5993 36.3123 97.6644 36.4631C97.7326 36.6114 97.8287 36.7172 97.9527 36.7806C98.08 36.8415 98.2169 36.8807 98.3636 36.8982C98.4736 36.9112 98.5646 36.9163 98.6365 36.9134C98.7087 36.9077 98.7664 36.9031 98.8097 36.8997L98.9062 37.8209C98.8355 37.8383 98.7379 37.8524 98.6136 37.8634C98.489 37.8772 98.3335 37.873 98.1474 37.8509C97.8652 37.8173 97.596 37.7238 97.3396 37.5703C97.086 37.4171 96.8851 37.2059 96.7369 36.9365C96.5915 36.6674 96.5413 36.3439 96.5863 35.9659L97.355 29.5001Z" fill="#CDCDCF"/>
<path d="M24.9772 59.734L26.6946 45.2902L27.6199 45.4003L25.9025 59.844L24.9772 59.734ZM29.0563 50.1142C29.0596 49.5729 28.8606 49.1297 28.4591 48.7844C28.0581 48.4354 27.5266 48.2215 26.8646 48.1428C26.3907 48.0864 25.9718 48.1129 25.6078 48.2222C25.2443 48.3278 24.9513 48.4989 24.7286 48.7356C24.5101 48.969 24.3814 49.2494 24.3425 49.5766C24.3098 49.8512 24.3456 50.0958 24.4498 50.3103C24.5577 50.5253 24.709 50.7131 24.9035 50.8735C25.1023 51.0307 25.3185 51.1689 25.5523 51.2882C25.7865 51.4038 26.0131 51.5032 26.232 51.5865L27.3256 52.014C27.6834 52.1481 28.0469 52.3153 28.416 52.5156C28.7851 52.7159 29.1202 52.9617 29.4212 53.2531C29.7222 53.5445 29.9522 53.8884 30.111 54.2849C30.2736 54.6819 30.3241 55.1399 30.2623 55.659C30.1845 56.3135 29.9462 56.8745 29.5473 57.342C29.1521 57.81 28.6174 58.1527 27.9431 58.37C27.2725 58.5879 26.4859 58.6431 25.5831 58.5358C24.718 58.4329 23.9858 58.2066 23.3866 57.8569C22.7873 57.5072 22.339 57.0591 22.0416 56.5126C21.7446 55.9623 21.6187 55.337 21.6638 54.6366L23.4129 54.8446C23.3971 55.2661 23.4911 55.6302 23.695 55.9367C23.9031 56.2399 24.1852 56.4813 24.5415 56.661C24.902 56.8374 25.3061 56.9522 25.7537 57.0054C26.2464 57.064 26.6938 57.039 27.0958 56.9304C27.502 56.8185 27.8326 56.6365 28.0876 56.3846C28.3431 56.1289 28.4932 55.8129 28.5379 55.4368C28.5786 55.0945 28.5141 54.8027 28.3444 54.5613C28.1786 54.3203 27.9386 54.1087 27.6246 53.9264C27.3144 53.7445 26.9588 53.5745 26.5581 53.4162L25.2369 52.8815C24.3416 52.5194 23.6522 52.0617 23.1687 51.5084C22.689 50.9554 22.4969 50.2765 22.5926 49.4715C22.6718 48.8058 22.9214 48.2461 23.3416 47.7925C23.7617 47.339 24.2965 47.0116 24.946 46.8103C25.596 46.6053 26.3084 46.5489 27.0832 46.641C27.8656 46.7341 28.5395 46.9534 29.1049 47.2991C29.6741 47.6452 30.1031 48.0796 30.3919 48.6022C30.6811 49.1211 30.7964 49.6917 30.7376 50.3141L29.0563 50.1142ZM31.8337 56.7957L32.0014 55.3851L37.9325 48.0912L39.044 48.2234L38.7971 50.2997L38.0919 50.2158L33.8483 55.4445L33.8375 55.5348L40.6814 56.3485L40.5056 57.8267L31.8337 56.7957ZM37.0439 59.7039L37.3632 57.0183L37.4509 56.3764L38.429 48.1503L40.0821 48.3468L38.7083 59.9018L37.0439 59.7039ZM45.9988 60.9288C45.2917 60.8448 44.6721 60.6338 44.1401 60.2959C43.6123 59.9546 43.2094 59.5253 42.9314 59.0078C42.6535 58.4903 42.5396 57.9236 42.59 57.3079L44.2826 57.5091C44.2649 58.0105 44.4365 58.4448 44.7971 58.8119C45.1578 59.179 45.6165 59.3957 46.1732 59.4619C46.6171 59.5147 47.0222 59.4598 47.3886 59.2974C47.7593 59.1317 48.0639 58.8799 48.3024 58.5421C48.5447 58.2047 48.6933 57.8047 48.7483 57.342C48.8042 56.8718 48.7525 56.4404 48.5933 56.0476C48.434 55.6548 48.1882 55.3319 47.8559 55.0788C47.5274 54.8261 47.1339 54.6706 46.6754 54.6123C46.3256 54.5707 45.9668 54.589 45.5989 54.6674C45.231 54.7457 44.9264 54.8697 44.685 55.0393L43.1164 54.6125L44.4576 48.867L50.8106 49.6224L50.6328 51.1176L45.7298 50.5346L44.9787 53.7239L45.0464 53.732C45.298 53.5406 45.6187 53.3938 46.0086 53.2913C46.4021 53.1894 46.8133 53.1639 47.2421 53.2149C47.9455 53.2985 48.5519 53.5403 49.0612 53.9404C49.5744 54.3409 49.9545 54.8496 50.2015 55.4664C50.4528 56.0799 50.5321 56.7607 50.4393 57.5087C50.3541 58.2577 50.1055 58.9052 49.6934 59.4513C49.2851 59.9978 48.7599 60.4046 48.1179 60.6715C47.48 60.9352 46.7736 61.021 45.9988 60.9288ZM56.056 62.159C55.165 62.0492 54.4313 61.7236 53.8548 61.182C53.2784 60.6405 52.8757 59.9041 52.647 58.9728C52.4182 58.0416 52.3785 56.9478 52.5279 55.6915C52.6768 54.4389 52.9714 53.3887 53.4117 52.5408C53.8558 51.6934 54.4215 51.0741 55.1089 50.6828C55.8 50.2919 56.5875 50.1491 57.4715 50.2542C58.3554 50.3593 59.0854 50.6845 59.6614 51.2298C60.2378 51.7713 60.6407 52.5058 60.8699 53.4333C61.1033 54.3575 61.1456 55.4459 60.9966 56.6984C60.8468 57.9585 60.5515 59.0143 60.1108 59.866C59.6705 60.7139 59.1064 61.3353 58.4186 61.7304C57.7312 62.1216 56.9437 62.2645 56.056 62.159ZM56.2351 60.6525C57.0175 60.7455 57.6741 60.4364 58.205 59.7252C58.7396 59.0144 59.0928 57.9368 59.2645 56.4925C59.3786 55.5333 59.3734 54.7107 59.249 54.0245C59.1288 53.335 58.901 52.7968 58.5655 52.4098C58.2343 52.0195 57.811 51.7937 57.2957 51.7324C56.5171 51.6398 55.8603 51.9508 55.3252 52.6654C54.7901 53.3799 54.435 54.4573 54.26 55.8974C54.1455 56.8603 54.1484 57.6865 54.2686 58.376C54.393 59.0622 54.621 59.5985 54.9527 59.9851C55.2848 60.3679 55.7123 60.5904 56.2351 60.6525ZM63.0143 62.9005C62.7058 62.8638 62.4536 62.7232 62.2577 62.4786C62.0621 62.2303 61.9829 61.9501 62.02 61.6379C62.0567 61.3294 62.199 61.0793 62.4468 60.8876C62.6951 60.692 62.9735 60.6126 63.2819 60.6493C63.5904 60.6859 63.8424 60.8284 64.0379 61.0767C64.2339 61.3213 64.3135 61.5978 64.2769 61.9062C64.2523 62.1131 64.177 62.2968 64.0511 62.4573C63.9294 62.6145 63.7779 62.7338 63.5966 62.8152C63.4153 62.8966 63.2212 62.9251 63.0143 62.9005ZM67.5138 63.4355C67.2054 63.3988 66.9532 63.2582 66.7572 63.0136C66.5617 62.7653 66.4825 62.4851 66.5196 62.1729C66.5563 61.8644 66.6985 61.6143 66.9464 61.4226C67.1947 61.227 67.4731 61.1476 67.7815 61.1843C68.0899 61.2209 68.3419 61.3634 68.5375 61.6117C68.7334 61.8563 68.8131 62.1328 68.7764 62.4412C68.7518 62.6481 68.6766 62.8318 68.5507 62.9923C68.429 63.1495 68.2775 63.2688 68.0962 63.3502C67.9148 63.4316 67.7207 63.4601 67.5138 63.4355ZM74.4732 64.3487C73.5822 64.239 72.8484 63.9133 72.272 63.3718C71.6955 62.8302 71.2929 62.0938 71.0641 61.1626C70.8354 60.2313 70.7957 59.1376 70.945 57.8813C71.094 56.6287 71.3886 55.5785 71.8289 54.7306C72.273 53.8832 72.8387 53.2638 73.526 52.8726C74.2172 52.4817 75.0047 52.3389 75.8886 52.444C76.7725 52.5491 77.5025 52.8743 78.0785 53.4196C78.655 53.9611 79.0578 54.6956 79.287 55.6231C79.5205 56.5473 79.5627 57.6357 79.4138 58.8882C79.264 60.1483 78.9687 61.2041 78.5279 62.0558C78.0876 62.9036 77.5236 63.5251 76.8357 63.9201C76.1484 64.3114 75.3608 64.4543 74.4732 64.3487ZM74.6523 62.8423C75.4346 62.9353 76.0913 62.6262 76.6221 61.915C77.1568 61.2042 77.5099 60.1266 77.6817 58.6822C77.7957 57.7231 77.7905 56.9004 77.6661 56.2143C77.5459 55.5248 77.3181 54.9866 76.9827 54.5996C76.6514 54.2093 76.2282 53.9835 75.7129 53.9222C74.9343 53.8296 74.2774 54.1406 73.7423 54.8551C73.2073 55.5697 72.8522 56.6471 72.6771 58.0872C72.5627 59.0501 72.5655 59.8763 72.6857 60.5658C72.8101 61.2519 73.0381 61.7883 73.3698 62.1749C73.702 62.5577 74.1294 62.7801 74.6523 62.8423ZM84.729 65.5682C83.838 65.4584 83.1043 65.1328 82.5279 64.5912C81.9514 64.0497 81.5488 63.3133 81.32 62.382C81.0912 61.4508 81.0515 60.357 81.2009 59.1007C81.3498 57.8481 81.6445 56.7979 82.0848 55.95C82.5288 55.1026 83.0946 54.4833 83.7819 54.092C84.4731 53.7011 85.2606 53.5583 86.1445 53.6634C87.0284 53.7685 87.7584 54.0937 88.3344 54.639C88.9109 55.1805 89.3137 55.915 89.5429 56.8425C89.7763 57.7667 89.8186 58.8551 89.6697 60.1076C89.5199 61.3677 89.2246 62.4235 88.7838 63.2752C88.3435 64.1231 87.7794 64.7445 87.0916 65.1396C86.4043 65.5308 85.6167 65.6737 84.729 65.5682ZM84.9082 64.0617C85.6905 64.1547 86.3471 63.8456 86.878 63.1344C87.4126 62.4236 87.7658 61.346 87.9376 59.9017C88.0516 58.9425 88.0464 58.1199 87.922 57.4337C87.8018 56.7442 87.574 56.206 87.2386 55.819C86.9073 55.4287 86.4841 55.2029 85.9687 55.1416C85.1901 55.049 84.5333 55.36 83.9982 56.0746C83.4631 56.7891 83.1081 57.8665 82.933 59.3066C82.8185 60.2695 82.8214 61.0957 82.9416 61.7852C83.066 62.4714 83.294 63.0077 83.6257 63.3943C83.9578 63.7771 84.3853 63.9996 84.9082 64.0617Z" fill="#FBFBFB"/>
<rect x="186.11" y="45.2021" width="64" height="28" rx="14" transform="rotate(6.78059 186.11 45.2021)" fill="white"/>
<path d="M206.848 58.7746C206.851 58.3348 206.689 57.9746 206.363 57.6941C206.037 57.4105 205.605 57.2367 205.067 57.1728C204.682 57.127 204.342 57.1485 204.046 57.2373C203.751 57.3231 203.513 57.4621 203.332 57.6545C203.154 57.8441 203.049 58.0719 203.018 58.3378C202.991 58.5609 203.02 58.7596 203.105 58.9339C203.193 59.1086 203.316 59.2611 203.474 59.3915C203.635 59.5192 203.811 59.6315 204.001 59.7285C204.191 59.8224 204.375 59.9032 204.553 59.9708L205.442 60.3182C205.732 60.4272 206.028 60.563 206.328 60.7257C206.628 60.8885 206.9 61.0882 207.144 61.3249C207.389 61.5617 207.576 61.8411 207.705 62.1633C207.837 62.4858 207.878 62.858 207.828 63.2797C207.765 63.8115 207.571 64.2673 207.247 64.6472C206.926 65.0274 206.491 65.3058 205.943 65.4825C205.399 65.6594 204.759 65.7043 204.026 65.6171C203.323 65.5335 202.728 65.3497 202.241 65.0655C201.754 64.7814 201.39 64.4173 201.148 63.9732C200.907 63.5261 200.805 63.0181 200.841 62.4491L202.263 62.618C202.25 62.9605 202.326 63.2563 202.492 63.5053C202.661 63.7517 202.89 63.9479 203.18 64.0939C203.472 64.2372 203.801 64.3304 204.164 64.3737C204.565 64.4213 204.928 64.401 205.255 64.3127C205.585 64.2218 205.854 64.074 206.061 63.8693C206.268 63.6615 206.39 63.4048 206.427 63.0992C206.46 62.8211 206.407 62.584 206.269 62.3878C206.135 62.192 205.94 62.0201 205.685 61.872C205.433 61.7242 205.144 61.586 204.818 61.4574L203.745 61.023C203.017 60.7288 202.457 60.3569 202.064 59.9073C201.674 59.4581 201.518 58.9064 201.596 58.2524C201.66 57.7115 201.863 57.2568 202.205 56.8882C202.546 56.5197 202.981 56.2537 203.508 56.0902C204.036 55.9236 204.615 55.8778 205.245 55.9526C205.88 56.0282 206.428 56.2064 206.887 56.4873C207.35 56.7685 207.698 57.1215 207.933 57.5461C208.168 57.9676 208.262 58.4313 208.214 58.937L206.848 58.7746ZM212.12 66.5655C211.426 66.483 210.846 66.2638 210.38 65.9077C209.918 65.549 209.583 65.083 209.375 64.5097C209.171 63.9337 209.112 63.2806 209.199 62.5501C209.285 61.8289 209.495 61.2092 209.829 60.6911C210.166 60.1733 210.596 59.789 211.119 59.5381C211.645 59.2876 212.235 59.2012 212.889 59.2789C213.286 59.3262 213.663 59.4377 214.02 59.6134C214.378 59.7892 214.688 60.0352 214.951 60.3517C215.214 60.6681 215.404 61.0611 215.522 61.5307C215.64 61.9972 215.661 62.5498 215.585 63.1886L215.527 63.6745L209.93 63.009L210.052 61.9821L214.306 62.4879C214.349 62.1273 214.314 61.7992 214.2 61.5037C214.087 61.2051 213.907 60.959 213.66 60.7654C213.417 60.5722 213.118 60.4545 212.763 60.4123C212.378 60.3665 212.031 60.4213 211.721 60.5766C211.414 60.7293 211.165 60.9476 210.973 61.2316C210.785 61.513 210.67 61.8293 210.628 62.1808L210.533 62.983C210.477 63.4537 210.512 63.8638 210.637 64.2135C210.766 64.5636 210.97 64.8435 211.249 65.0533C211.528 65.2601 211.868 65.3872 212.268 65.4348C212.528 65.4657 212.769 65.4572 212.992 65.4093C213.215 65.3583 213.413 65.2672 213.587 65.136C213.76 65.0048 213.902 64.8341 214.01 64.6239L215.28 65.0119C215.131 65.3816 214.904 65.694 214.601 65.9493C214.302 66.2019 213.941 66.3837 213.518 66.4947C213.099 66.6029 212.633 66.6265 212.12 66.5655ZM218.546 62.9456L218.049 67.1264L216.678 66.9634L217.516 59.9221L218.831 60.0785L218.695 61.2246L218.782 61.2349C218.988 60.8813 219.278 60.612 219.65 60.4269C220.025 60.2422 220.477 60.1812 221.006 60.2441C221.486 60.3012 221.894 60.452 222.231 60.6966C222.568 60.9381 222.812 61.2678 222.964 61.6856C223.116 62.1035 223.157 62.6027 223.088 63.1834L222.555 67.6622L221.185 67.4992L221.698 63.1855C221.758 62.6751 221.673 62.2605 221.441 61.9416C221.21 61.6196 220.862 61.431 220.397 61.3758C220.079 61.338 219.789 61.3732 219.525 61.4813C219.264 61.5897 219.046 61.7684 218.87 62.0172C218.699 62.2633 218.591 62.5727 218.546 62.9456ZM227.013 68.3317C226.445 68.2641 225.955 68.0586 225.543 67.7152C225.135 67.3691 224.836 66.9105 224.647 66.3395C224.461 65.7657 224.413 65.0983 224.503 64.3373C224.594 63.5763 224.798 62.9405 225.116 62.4297C225.437 61.9193 225.838 61.547 226.318 61.3127C226.799 61.0785 227.321 60.995 227.887 61.0622C228.324 61.1142 228.667 61.2293 228.915 61.4076C229.167 61.5833 229.355 61.776 229.479 61.986C229.605 62.1964 229.701 62.3798 229.766 62.5363L229.849 62.5461L230.264 59.0575L231.634 59.2205L230.518 68.6089L229.18 68.4498L229.31 67.3542L229.195 67.3405C229.095 67.4805 228.955 67.6374 228.777 67.8114C228.601 67.9858 228.37 68.1288 228.084 68.2405C227.798 68.3521 227.441 68.3825 227.013 68.3317ZM227.455 67.1987C227.849 67.2455 228.194 67.1812 228.491 67.0058C228.791 66.8276 229.034 66.5604 229.219 66.2043C229.407 65.8485 229.53 65.4231 229.589 64.928C229.647 64.439 229.628 64.0028 229.531 63.6194C229.434 63.2359 229.261 62.9257 229.014 62.6886C228.766 62.4515 228.442 62.3091 228.042 62.2615C227.629 62.2124 227.273 62.2785 226.972 62.4598C226.672 62.641 226.429 62.9081 226.245 63.2612C226.063 63.6146 225.945 64.0236 225.89 64.4882C225.834 64.9588 225.854 65.3904 225.949 65.7831C226.045 66.1757 226.218 66.4984 226.467 66.7511C226.719 67.0012 227.048 67.1503 227.455 67.1987Z" fill="#523364"/>
</svg>
