<svg width="237" height="89" viewBox="0 0 237 89" fill="none" xmlns="http://www.w3.org/2000/svg">
<rect width="236.433" height="88.1219" rx="13.3014" fill="#090909"/>
<g filter="url(#filter0_ii_18_49)">
<path d="M23.5975 22.3142C23.0866 22.857 22.7847 23.6995 22.7847 24.7904V63.7685C22.7847 64.8612 23.0866 65.7019 23.5975 66.2448L23.7274 66.3716L45.4774 44.5368V44.2795V44.0222L23.7274 22.1855L23.5975 22.3142Z" fill="url(#paint0_linear_18_49)"/>
<path d="M52.7259 51.8172L45.477 44.5365V44.2792V44.0219L52.7276 36.743L52.8909 36.8365L61.481 41.736C63.9335 43.1354 63.9335 45.4248 61.481 46.826L52.8909 51.7255L52.7259 51.8172Z" fill="url(#paint1_linear_18_49)"/>
<g filter="url(#filter1_i_18_49)">
<path d="M52.8914 51.7236L45.4758 44.2791L23.5977 66.2443C24.4052 67.1044 25.7412 67.2101 27.2458 66.3536L52.8914 51.7236Z" fill="url(#paint2_linear_18_49)"/>
</g>
<path d="M52.8914 36.8351L27.2458 22.2068C25.7412 21.3485 24.4052 21.456 23.5977 22.3161L45.4775 44.2814L52.8914 36.8351Z" fill="url(#paint3_linear_18_49)"/>
</g>
<path d="M118.484 46.4121C114.585 46.4121 111.406 49.3769 111.406 53.4604C111.406 57.519 114.585 60.5087 118.484 60.5087C122.386 60.5087 125.564 57.519 125.564 53.4604C125.563 49.3769 122.384 46.4121 118.484 46.4121ZM118.484 57.7345C116.347 57.7345 114.505 55.9728 114.505 53.4621C114.505 50.9248 116.349 49.1897 118.484 49.1897C120.622 49.1897 122.464 50.9248 122.464 53.4621C122.464 55.9712 120.622 57.7345 118.484 57.7345ZM103.041 46.4121C99.1411 46.4121 95.9626 49.3769 95.9626 53.4604C95.9626 57.519 99.1411 60.5087 103.041 60.5087C106.942 60.5087 110.121 57.519 110.121 53.4604C110.121 49.3769 106.942 46.4121 103.041 46.4121ZM103.041 57.7345C100.904 57.7345 99.0615 55.9728 99.0615 53.4621C99.0615 50.9248 100.905 49.1897 103.041 49.1897C105.178 49.1897 107.02 50.9248 107.02 53.4621C107.022 55.9712 105.178 57.7345 103.041 57.7345ZM84.6726 48.5765V51.5662H91.8322C91.6184 53.2483 91.0579 54.4763 90.2023 55.3298C89.1611 56.3706 87.5312 57.519 84.6726 57.519C80.2654 57.519 76.8199 53.9675 76.8199 49.5626C76.8199 45.1576 80.2654 41.6061 84.6726 41.6061C87.0503 41.6061 88.7863 42.5408 90.068 43.7423L92.1788 41.6326C90.388 39.924 88.012 38.6164 84.6726 38.6164C78.6355 38.6164 73.5601 43.5285 73.5601 49.5626C73.5601 55.5966 78.6355 60.5087 84.6726 60.5087C87.9308 60.5087 90.3897 59.4398 92.3114 57.4378C94.2879 55.4624 94.903 52.6848 94.903 50.4426C94.903 49.7498 94.85 49.1085 94.7422 48.5748L84.6726 48.5765ZM159.798 50.8983C159.211 49.3239 157.42 46.4121 153.76 46.4121C150.128 46.4121 147.108 49.2692 147.108 53.4604C147.108 57.4113 150.101 60.5087 154.107 60.5087C157.339 60.5087 159.209 58.5333 159.985 57.3848L157.581 55.7822C156.78 56.9572 155.684 57.7312 154.107 57.7312C152.532 57.7312 151.409 57.0103 150.688 55.595L160.118 51.6971L159.798 50.8983ZM150.181 53.2483C150.101 50.5238 152.291 49.1366 153.868 49.1366C155.097 49.1366 156.138 49.7515 156.486 50.6315L150.181 53.2483ZM142.515 60.0828H145.613V39.3655H142.515V60.0828ZM137.438 47.9882H137.332C136.637 47.1595 135.301 46.4121 133.62 46.4121C130.093 46.4121 126.861 49.5095 126.861 53.4886C126.861 57.4395 130.093 60.5104 133.62 60.5104C135.302 60.5104 136.637 59.763 137.332 58.9095H137.438V59.9237C137.438 62.6201 135.996 64.0619 133.673 64.0619C131.776 64.0619 130.6 62.7013 130.119 61.5528L127.422 62.6748C128.196 64.5425 130.252 66.8394 133.673 66.8394C137.305 66.8394 140.378 64.7032 140.378 59.4961V46.8413H137.44L137.438 47.9882ZM133.886 57.7345C131.749 57.7345 129.96 55.9446 129.96 53.4886C129.96 51.0044 131.749 49.1897 133.886 49.1897C135.996 49.1897 137.652 51.0044 137.652 53.4886C137.652 55.9446 135.996 57.7345 133.886 57.7345ZM174.312 39.3655H166.899V60.0828H169.991V52.2341H174.311C177.74 52.2341 181.112 49.7531 181.112 45.8006C181.112 41.848 177.741 39.3655 174.312 39.3655ZM174.392 49.3504H169.991V42.2491H174.392C176.705 42.2491 178.018 44.1632 178.018 45.8006C178.018 47.4048 176.705 49.3504 174.392 49.3504ZM193.513 46.3757C191.273 46.3757 188.953 47.3617 187.993 49.5476L190.739 50.6928C191.326 49.5476 192.42 49.1731 193.566 49.1731C195.166 49.1731 196.793 50.1327 196.819 51.838V52.0518C196.259 51.7319 195.059 51.253 193.593 51.253C190.633 51.253 187.619 52.8787 187.619 55.9165C187.619 58.6891 190.046 60.4739 192.765 60.4739C194.845 60.4739 195.992 59.5409 196.712 58.4471H196.818V60.0464H199.806V52.1031C199.807 48.4273 197.058 46.3757 193.513 46.3757ZM193.138 57.7295C192.127 57.7295 190.713 57.2224 190.713 55.9695C190.713 54.3703 192.474 53.7571 193.994 53.7571C195.352 53.7571 195.994 54.0504 196.819 54.4498C196.579 56.3706 194.926 57.7295 193.138 57.7295ZM210.686 46.8281L207.139 55.8104H207.033L203.352 46.8281H200.02L205.539 59.3818L202.392 66.3655H205.619L214.127 46.8281H210.686ZM182.82 60.0828H185.912V39.3655H182.82V60.0828Z" fill="white"/>
<path d="M84.2863 27.1112C84.2863 28.4748 83.8755 29.5602 83.0521 30.3705C82.1178 31.3339 80.8985 31.8155 79.401 31.8155C77.9663 31.8155 76.7454 31.3274 75.7432 30.351C74.7393 29.3731 74.2373 28.1624 74.2373 26.7174C74.2373 25.2708 74.7393 24.0602 75.7432 23.0838C76.7454 22.1058 77.9663 21.6177 79.401 21.6177C80.1133 21.6177 80.7942 21.7544 81.4402 22.0261C82.088 22.2995 82.6065 22.6624 82.9941 23.1164L82.1211 23.9755C81.4634 23.2026 80.5573 22.8169 79.3993 22.8169C78.3523 22.8169 77.4478 23.1782 76.6841 23.9007C75.9204 24.6232 75.5394 25.5621 75.5394 26.7158C75.5394 27.8695 75.9204 28.8084 76.6841 29.5309C77.4478 30.2534 78.3523 30.6146 79.3993 30.6146C80.5092 30.6146 81.4353 30.2518 82.1758 29.5244C82.6562 29.0509 82.9345 28.3918 83.009 27.5473H79.3993V26.3741H84.2151C84.2648 26.6295 84.2863 26.8753 84.2863 27.1112Z" fill="white"/>
<path d="M91.9234 23.0335H87.3976V26.1285H91.4794V27.3017H87.3976V30.3967H91.9234V31.5976H86.1203V21.8342H91.9234V23.0335Z" fill="white"/>
<path d="M97.3089 31.5976H96.0316V23.0335H93.2551V21.8342H100.085V23.0335H97.3089V31.5976Z" fill="white"/>
<path d="M105.027 31.5976V21.8342H106.304V31.5976H105.027Z" fill="white"/>
<path d="M111.968 31.5976H110.691V23.0335H107.915V21.8342H114.745V23.0335H111.968V31.5976Z" fill="white"/>
<path d="M127.674 30.3364C126.697 31.3225 125.483 31.8156 124.03 31.8156C122.577 31.8156 121.363 31.3225 120.387 30.3364C119.41 29.3503 118.922 28.1429 118.922 26.7159C118.922 25.2888 119.41 24.0814 120.387 23.0953C121.363 22.1092 122.577 21.6145 124.03 21.6145C125.474 21.6145 126.687 22.1108 127.668 23.1018C128.648 24.0928 129.139 25.2969 129.139 26.7159C129.139 28.1429 128.65 29.3503 127.674 30.3364ZM121.33 29.518C122.065 30.2502 122.965 30.6147 124.03 30.6147C125.095 30.6147 125.996 30.2486 126.73 29.518C127.466 28.7857 127.835 27.8517 127.835 26.7159C127.835 25.5801 127.466 24.646 126.73 23.9138C125.996 23.1815 125.095 22.817 124.03 22.817C122.965 22.817 122.065 23.1832 121.33 23.9138C120.596 24.646 120.226 25.5801 120.226 26.7159C120.226 27.8517 120.596 28.7857 121.33 29.518Z" fill="white"/>
<path d="M130.931 31.5976V21.8342H132.485L137.316 29.4285H137.371L137.316 27.5474V21.8342H138.593V31.5976H137.26L132.205 23.6339H132.151L132.205 25.515V31.5976H130.931Z" fill="white"/>
<path d="M84.2863 27.1112C84.2863 28.4748 83.8755 29.5602 83.0521 30.3705C82.1178 31.3339 80.8985 31.8155 79.401 31.8155C77.9663 31.8155 76.7454 31.3274 75.7432 30.351C74.7393 29.3731 74.2373 28.1624 74.2373 26.7174C74.2373 25.2708 74.7393 24.0602 75.7432 23.0838C76.7454 22.1058 77.9663 21.6177 79.401 21.6177C80.1133 21.6177 80.7942 21.7544 81.4402 22.0261C82.088 22.2995 82.6065 22.6624 82.9941 23.1164L82.1211 23.9755C81.4634 23.2026 80.5573 22.8169 79.3993 22.8169C78.3523 22.8169 77.4478 23.1782 76.6841 23.9007C75.9204 24.6232 75.5394 25.5621 75.5394 26.7158C75.5394 27.8695 75.9204 28.8084 76.6841 29.5309C77.4478 30.2534 78.3523 30.6146 79.3993 30.6146C80.5092 30.6146 81.4353 30.2518 82.1758 29.5244C82.6562 29.0509 82.9345 28.3918 83.009 27.5473H79.3993V26.3741H84.2151C84.2648 26.6295 84.2863 26.8753 84.2863 27.1112Z" stroke="white" stroke-width="0.0680073" stroke-miterlimit="10"/>
<path d="M91.9234 23.0335H87.3976V26.1285H91.4794V27.3017H87.3976V30.3967H91.9234V31.5976H86.1203V21.8342H91.9234V23.0335Z" stroke="white" stroke-width="0.0680073" stroke-miterlimit="10"/>
<path d="M97.3089 31.5976H96.0316V23.0335H93.2551V21.8342H100.085V23.0335H97.3089V31.5976Z" stroke="white" stroke-width="0.0680073" stroke-miterlimit="10"/>
<path d="M105.027 31.5976V21.8342H106.304V31.5976H105.027Z" stroke="white" stroke-width="0.0680073" stroke-miterlimit="10"/>
<path d="M111.968 31.5976H110.691V23.0335H107.915V21.8342H114.745V23.0335H111.968V31.5976Z" stroke="white" stroke-width="0.0680073" stroke-miterlimit="10"/>
<path d="M127.674 30.3364C126.697 31.3225 125.483 31.8156 124.03 31.8156C122.577 31.8156 121.363 31.3225 120.387 30.3364C119.41 29.3503 118.922 28.1429 118.922 26.7159C118.922 25.2888 119.41 24.0814 120.387 23.0953C121.363 22.1092 122.577 21.6145 124.03 21.6145C125.474 21.6145 126.687 22.1108 127.668 23.1018C128.648 24.0928 129.139 25.2969 129.139 26.7159C129.139 28.1429 128.65 29.3503 127.674 30.3364ZM121.33 29.518C122.065 30.2502 122.965 30.6147 124.03 30.6147C125.095 30.6147 125.996 30.2486 126.73 29.518C127.466 28.7857 127.835 27.8517 127.835 26.7159C127.835 25.5801 127.466 24.646 126.73 23.9138C125.996 23.1815 125.095 22.817 124.03 22.817C122.965 22.817 122.065 23.1832 121.33 23.9138C120.596 24.646 120.226 25.5801 120.226 26.7159C120.226 27.8517 120.596 28.7857 121.33 29.518Z" stroke="white" stroke-width="0.0680073" stroke-miterlimit="10"/>
<path d="M130.931 31.5976V21.8342H132.485L137.316 29.4285H137.371L137.316 27.5474V21.8342H138.593V31.5976H137.26L132.205 23.6339H132.151L132.205 25.515V31.5976H130.931Z" stroke="white" stroke-width="0.0680073" stroke-miterlimit="10"/>
<defs>
<filter id="filter0_ii_18_49" x="22.7847" y="21.6145" width="40.5356" height="45.3307" filterUnits="userSpaceOnUse" color-interpolation-filters="sRGB">
<feFlood flood-opacity="0" result="BackgroundImageFix"/>
<feBlend mode="normal" in="SourceGraphic" in2="BackgroundImageFix" result="shape"/>
<feColorMatrix in="SourceAlpha" type="matrix" values="0 0 0 0 0 0 0 0 0 0 0 0 0 0 0 0 0 0 127 0" result="hardAlpha"/>
<feOffset dy="-0.264366"/>
<feComposite in2="hardAlpha" operator="arithmetic" k2="-1" k3="1"/>
<feColorMatrix type="matrix" values="0 0 0 0 0 0 0 0 0 0 0 0 0 0 0 0 0 0 0.12 0"/>
<feBlend mode="normal" in2="shape" result="effect1_innerShadow_18_49"/>
<feColorMatrix in="SourceAlpha" type="matrix" values="0 0 0 0 0 0 0 0 0 0 0 0 0 0 0 0 0 0 127 0" result="hardAlpha"/>
<feOffset dy="0.264366"/>
<feComposite in2="hardAlpha" operator="arithmetic" k2="-1" k3="1"/>
<feColorMatrix type="matrix" values="0 0 0 0 1 0 0 0 0 1 0 0 0 0 1 0 0 0 0.25 0"/>
<feBlend mode="normal" in2="effect1_innerShadow_18_49" result="effect2_innerShadow_18_49"/>
</filter>
<filter id="filter1_i_18_49" x="23.5977" y="44.2791" width="29.2939" height="22.6661" filterUnits="userSpaceOnUse" color-interpolation-filters="sRGB">
<feFlood flood-opacity="0" result="BackgroundImageFix"/>
<feBlend mode="normal" in="SourceGraphic" in2="BackgroundImageFix" result="shape"/>
<feColorMatrix in="SourceAlpha" type="matrix" values="0 0 0 0 0 0 0 0 0 0 0 0 0 0 0 0 0 0 127 0" result="hardAlpha"/>
<feOffset dy="-0.264366"/>
<feComposite in2="hardAlpha" operator="arithmetic" k2="-1" k3="1"/>
<feColorMatrix type="matrix" values="0 0 0 0 0 0 0 0 0 0 0 0 0 0 0 0 0 0 0.08 0"/>
<feBlend mode="normal" in2="shape" result="effect1_innerShadow_18_49"/>
</filter>
<linearGradient id="paint0_linear_18_49" x1="43.5494" y1="24.378" x2="13.9724" y2="53.84" gradientUnits="userSpaceOnUse">
<stop stop-color="#00A0FF"/>
<stop offset="0.0066" stop-color="#00A1FF"/>
<stop offset="0.2601" stop-color="#00BEFF"/>
<stop offset="0.5122" stop-color="#00D2FF"/>
<stop offset="0.7604" stop-color="#00DFFF"/>
<stop offset="1" stop-color="#00E3FF"/>
</linearGradient>
<linearGradient id="paint1_linear_18_49" x1="64.6735" y1="44.2792" x2="22.1955" y2="44.2792" gradientUnits="userSpaceOnUse">
<stop stop-color="#FFE000"/>
<stop offset="0.4087" stop-color="#FFBD00"/>
<stop offset="0.7754" stop-color="#FFA500"/>
<stop offset="1" stop-color="#FF9C00"/>
</linearGradient>
<linearGradient id="paint2_linear_18_49" x1="48.8642" y1="48.3219" x2="8.75408" y2="88.2761" gradientUnits="userSpaceOnUse">
<stop stop-color="#FF3A44"/>
<stop offset="1" stop-color="#C31162"/>
</linearGradient>
<linearGradient id="paint3_linear_18_49" x1="18.0876" y1="9.34066" x2="35.9979" y2="27.1813" gradientUnits="userSpaceOnUse">
<stop stop-color="#32A071"/>
<stop offset="0.0685" stop-color="#2DA771"/>
<stop offset="0.4762" stop-color="#15CF74"/>
<stop offset="0.8009" stop-color="#06E775"/>
<stop offset="1" stop-color="#00F076"/>
</linearGradient>
</defs>
</svg>
