<svg width="61" height="61" viewBox="0 0 61 61" fill="none" xmlns="http://www.w3.org/2000/svg">
<path d="M13.8122 26.7916C10.2275 26.7916 7.16808 25.5246 4.63405 22.9905C2.10002 20.4565 0.833008 17.3971 0.833008 13.8124C0.833008 10.2277 2.10002 7.16832 4.63405 4.63429C7.16808 2.10027 10.2275 0.833252 13.8122 0.833252C17.3969 0.833252 20.4563 2.10027 22.9903 4.63429C25.5243 7.16832 26.7913 10.2277 26.7913 13.8124C26.7913 17.3971 25.5243 20.4565 22.9903 22.9905C20.4563 25.5246 17.3969 26.7916 13.8122 26.7916ZM13.8122 19.3749C15.3573 19.3749 16.6713 18.8347 17.7541 17.7544C18.837 16.674 19.3771 15.36 19.3747 13.8124C19.3722 12.2648 18.832 10.9521 17.7541 9.87417C16.6762 8.79628 15.3623 8.25486 13.8122 8.24992C12.2621 8.24498 10.9493 8.78639 9.87393 9.87417C8.79851 10.9619 8.25709 12.2747 8.24968 13.8124C8.24226 15.3501 8.78368 16.6641 9.87393 17.7544C10.9642 18.8446 12.2769 19.3848 13.8122 19.3749ZM47.1872 60.1666C43.6025 60.1666 40.5431 58.8996 38.0091 56.3656C35.475 53.8315 34.208 50.7721 34.208 47.1874C34.208 43.6027 35.475 40.5433 38.0091 38.0093C40.5431 35.4753 43.6025 34.2083 47.1872 34.2083C50.7719 34.2083 53.8313 35.4753 56.3653 38.0093C58.8993 40.5433 60.1663 43.6027 60.1663 47.1874C60.1663 50.7721 58.8993 53.8315 56.3653 56.3656C53.8313 58.8996 50.7719 60.1666 47.1872 60.1666ZM47.1872 52.7499C48.7323 52.7499 50.0463 52.2097 51.1291 51.1294C52.212 50.049 52.7522 48.735 52.7497 47.1874C52.7472 45.6398 52.207 44.3271 51.1291 43.2492C50.0513 42.1713 48.7373 41.6299 47.1872 41.6249C45.6371 41.62 44.3243 42.1614 43.2489 43.2492C42.1735 44.337 41.6321 45.6497 41.6247 47.1874C41.6173 48.7251 42.1587 50.0391 43.2489 51.1294C44.3392 52.2196 45.6519 52.7598 47.1872 52.7499ZM3.42884 57.5708C2.74898 56.8909 2.40905 56.0256 2.40905 54.9749C2.40905 53.9242 2.74898 53.0589 3.42884 52.3791L52.3788 3.42908C53.0587 2.74922 53.924 2.40929 54.9747 2.40929C56.0254 2.40929 56.8906 2.74922 57.5705 3.42908C58.2504 4.10895 58.5903 4.97423 58.5903 6.02492C58.5903 7.07561 58.2504 7.94089 57.5705 8.62075L8.62051 57.5708C7.94065 58.2506 7.07537 58.5906 6.02468 58.5906C4.97398 58.5906 4.1087 58.2506 3.42884 57.5708Z" fill="black"/>
</svg>
