<svg width="83" height="63" viewBox="0 0 83 63" fill="none" xmlns="http://www.w3.org/2000/svg">
<path d="M4.41699 3.6875H29.4742C30.9357 3.68733 32.3828 3.97511 33.733 4.53441C35.0833 5.09371 36.31 5.91356 37.3433 6.94713L48.917 18.5208M15.542 37.0625H4.41699M28.5212 14.8125L35.9378 22.2292C36.4248 22.7162 36.8111 23.2943 37.0747 23.9306C37.3382 24.5668 37.4739 25.2488 37.4739 25.9375C37.4739 26.6262 37.3382 27.3082 37.0747 27.9444C36.8111 28.5807 36.4248 29.1588 35.9378 29.6458C35.4508 30.1328 34.8727 30.5191 34.2364 30.7827C33.6001 31.0462 32.9182 31.1819 32.2295 31.1819C31.5408 31.1819 30.8588 31.0462 30.2226 30.7827C29.5863 30.5191 29.0081 30.1328 28.5212 29.6458L22.9587 24.0833C19.7695 27.2725 14.715 27.6322 11.1031 24.9251L9.97949 24.0833" stroke="black" stroke-width="7" stroke-linecap="round" stroke-linejoin="round"/>
<path d="M15.542 27.7916V44.4791C15.542 51.473 15.542 54.9662 17.7151 57.1393C19.8882 59.3124 23.3814 59.3124 30.3753 59.3124H63.7503C70.7442 59.3124 74.2375 59.3124 76.4106 57.1393C78.5837 54.9662 78.5837 51.473 78.5837 44.4791V33.3541C78.5837 26.3602 78.5837 22.8669 76.4106 20.6938C74.2375 18.5208 70.7442 18.5208 63.7503 18.5208H32.2295" stroke="black" stroke-width="7" stroke-linecap="round" stroke-linejoin="round"/>
<path d="M53.5524 38.9166C53.5524 40.6377 52.8687 42.2884 51.6517 43.5054C50.4346 44.7224 48.784 45.4062 47.0628 45.4062C45.3417 45.4062 43.691 44.7224 42.474 43.5054C41.257 42.2884 40.5732 40.6377 40.5732 38.9166C40.5732 37.1954 41.257 35.5448 42.474 34.3278C43.691 33.1107 45.3417 32.427 47.0628 32.427C48.784 32.427 50.4346 33.1107 51.6517 34.3278C52.8687 35.5448 53.5524 37.1954 53.5524 38.9166Z" stroke="black" stroke-width="7" stroke-linecap="round" stroke-linejoin="round"/>
</svg>
